<svg width="500" height="500" viewBox="0 0 500 500" fill="none" xmlns="http://www.w3.org/2000/svg">
<path d="M41.4204 297.72L49.2304 293.21C49.2304 293.21 53.8804 273.88 52.0304 256.5C49.4204 232.05 33.3304 222.85 27.2104 224.96C21.0904 227.07 19.3204 234.18 29.4504 248.74C35.4204 257.33 42.7604 275.22 41.4204 297.72Z" fill="#BA68C8"/>
<g opacity="0.65">
<path d="M41.4204 297.72L49.2304 293.21C49.2304 293.21 53.8804 273.88 52.0304 256.5C49.4204 232.05 33.3304 222.85 27.2104 224.96C21.0904 227.07 19.3204 234.18 29.4504 248.74C35.4204 257.33 42.7604 275.22 41.4204 297.72Z" fill="white"/>
</g>
<path d="M44.6602 288.23H44.5802C44.4397 288.203 44.3156 288.122 44.2349 288.004C44.1543 287.886 44.1239 287.741 44.1502 287.6C48.4302 265 40.5602 239.7 30.8002 229.16C30.7034 229.054 30.6527 228.914 30.6593 228.77C30.6658 228.627 30.7291 228.492 30.8352 228.395C30.9413 228.298 31.0815 228.248 31.2249 228.254C31.3684 228.261 31.5034 228.324 31.6002 228.43C41.5302 239.16 49.6002 264.91 45.2102 287.79C45.1863 287.917 45.1177 288.031 45.0168 288.112C44.9159 288.193 44.7894 288.235 44.6602 288.23Z" fill="white"/>
<path d="M21.7502 309.07C20.5902 309.67 17.4802 307.01 16.6202 306.37C15.1391 305.244 13.9718 303.756 13.2302 302.05C12.3941 300.116 12.1842 297.969 12.6302 295.91C12.8687 294.823 13.1828 293.753 13.5702 292.71C13.9202 291.71 14.2702 290.65 14.6302 289.61C15.0476 288.613 15.2585 287.541 15.2502 286.46C15.0802 284.3 13.2502 282.7 11.5802 281.31C9.73018 279.77 7.83018 277.78 7.97018 275.19C8.21291 273.186 9.11319 271.318 10.5302 269.88C11.8402 268.38 13.3802 267.06 14.5902 265.47C15.5343 264.348 16.0639 262.936 16.0902 261.47C16.0162 260.575 15.761 259.704 15.3402 258.91C14.3691 257.253 13.533 255.521 12.8402 253.73C12.3102 251.89 12.5102 249.64 13.9902 248.41C14.6472 247.974 15.3837 247.672 16.1576 247.521C16.9315 247.37 17.7275 247.373 18.5002 247.53C19.9615 247.786 21.3499 248.356 22.5702 249.2C26.5702 251.69 28.6702 256.68 32.9402 258.66C34.6432 259.284 36.3832 259.801 38.1502 260.21C39.0353 260.423 39.8666 260.817 40.5914 261.368C41.3161 261.919 41.9184 262.614 42.3602 263.41C43.8002 266.69 40.6302 270.49 41.5802 273.94C42.4302 276.94 45.2902 278.29 46.7902 281.08C47.4037 282.318 47.6035 283.72 47.3602 285.08C47.1016 287.371 46.4236 289.595 45.3602 291.64C44.1665 293.741 42.8474 295.768 41.4102 297.71C41.4102 297.71 21.9302 309 21.7502 309.07Z" fill="#BA68C8"/>
<g opacity="0.3">
<path d="M21.7502 309.07C20.5902 309.67 17.4802 307.01 16.6202 306.37C15.1391 305.244 13.9718 303.756 13.2302 302.05C12.3941 300.116 12.1842 297.969 12.6302 295.91C12.8687 294.823 13.1828 293.753 13.5702 292.71C13.9202 291.71 14.2702 290.65 14.6302 289.61C15.0476 288.613 15.2585 287.541 15.2502 286.46C15.0802 284.3 13.2502 282.7 11.5802 281.31C9.73018 279.77 7.83018 277.78 7.97018 275.19C8.21291 273.186 9.11319 271.318 10.5302 269.88C11.8402 268.38 13.3802 267.06 14.5902 265.47C15.5343 264.348 16.0639 262.936 16.0902 261.47C16.0162 260.575 15.761 259.704 15.3402 258.91C14.3691 257.253 13.533 255.521 12.8402 253.73C12.3102 251.89 12.5102 249.64 13.9902 248.41C14.6472 247.974 15.3837 247.672 16.1576 247.521C16.9315 247.37 17.7275 247.373 18.5002 247.53C19.9615 247.786 21.3499 248.356 22.5702 249.2C26.5702 251.69 28.6702 256.68 32.9402 258.66C34.6432 259.284 36.3832 259.801 38.1502 260.21C39.0353 260.423 39.8666 260.817 40.5914 261.368C41.3161 261.919 41.9184 262.614 42.3602 263.41C43.8002 266.69 40.6302 270.49 41.5802 273.94C42.4302 276.94 45.2902 278.29 46.7902 281.08C47.4037 282.318 47.6035 283.72 47.3602 285.08C47.1016 287.371 46.4236 289.595 45.3602 291.64C44.1665 293.741 42.8474 295.768 41.4102 297.71C41.4102 297.71 21.9302 309 21.7502 309.07Z" fill="white"/>
</g>
<path d="M33.0601 303.18C32.9238 303.167 32.798 303.101 32.71 302.997C32.6221 302.892 32.5789 302.756 32.5901 302.62C34.4601 282.34 26.0201 259.42 19.3801 252.55C19.2859 252.452 19.2346 252.32 19.2374 252.184C19.2402 252.048 19.2969 251.919 19.3951 251.825C19.4932 251.731 19.6247 251.68 19.7607 251.682C19.8966 251.685 20.0259 251.742 20.1201 251.84C26.8901 258.84 35.5101 282.15 33.6101 302.71C33.605 302.777 33.5868 302.842 33.5563 302.902C33.5259 302.962 33.4839 303.016 33.4328 303.059C33.3817 303.103 33.3225 303.136 33.2585 303.157C33.1945 303.178 33.1271 303.185 33.0601 303.18Z" fill="white"/>
<path d="M31.0503 278.18H30.9003C26.1522 276.597 21.2471 275.531 16.2703 275C16.2036 274.995 16.1386 274.977 16.0792 274.946C16.0197 274.916 15.967 274.873 15.9241 274.822C15.8812 274.771 15.849 274.712 15.8295 274.648C15.8099 274.584 15.8034 274.517 15.8103 274.45C15.8124 274.381 15.829 274.313 15.8591 274.251C15.8893 274.189 15.9322 274.134 15.985 274.09C16.0379 274.045 16.0995 274.013 16.1659 273.994C16.2323 273.975 16.302 273.97 16.3703 273.98C21.4306 274.499 26.4197 275.566 31.2503 277.16C31.3612 277.206 31.4527 277.29 31.5092 277.396C31.5657 277.502 31.5837 277.624 31.5602 277.742C31.5366 277.86 31.4729 277.966 31.3799 278.042C31.287 278.118 31.1705 278.16 31.0503 278.16V278.18Z" fill="white"/>
<path d="M458.58 297.72L450.77 293.21C450.77 293.21 446.12 273.88 447.97 256.5C450.58 232.05 466.67 222.85 472.79 224.96C478.91 227.07 480.68 234.18 470.55 248.74C464.58 257.33 457.24 275.22 458.58 297.72Z" fill="#BA68C8"/>
<g opacity="0.65">
<path d="M458.58 297.72L450.77 293.21C450.77 293.21 446.12 273.88 447.97 256.5C450.58 232.05 466.67 222.85 472.79 224.96C478.91 227.07 480.68 234.18 470.55 248.74C464.58 257.33 457.24 275.22 458.58 297.72Z" fill="white"/>
</g>
<path d="M455.34 288.23H455.42C455.561 288.203 455.685 288.122 455.765 288.004C455.846 287.886 455.876 287.741 455.85 287.6C451.57 265.05 459.44 239.71 469.2 229.17C469.297 229.064 469.348 228.924 469.341 228.78C469.335 228.637 469.271 228.502 469.165 228.405C469.059 228.308 468.919 228.258 468.775 228.264C468.632 228.271 468.497 228.334 468.4 228.44C458.47 239.17 450.4 264.92 454.79 287.8C454.816 287.925 454.886 288.037 454.986 288.116C455.087 288.195 455.212 288.235 455.34 288.23Z" fill="white"/>
<path d="M478.25 309.07C479.41 309.67 482.52 307.01 483.38 306.37C484.861 305.244 486.028 303.756 486.77 302.05C487.606 300.116 487.816 297.969 487.37 295.91C487.132 294.823 486.818 293.753 486.43 292.71C486.08 291.71 485.73 290.65 485.37 289.61C484.953 288.613 484.742 287.541 484.75 286.46C484.92 284.3 486.75 282.7 488.42 281.31C490.27 279.77 492.17 277.78 492.03 275.19C491.787 273.186 490.887 271.318 489.47 269.88C488.16 268.38 486.62 267.06 485.41 265.47C484.466 264.348 483.936 262.936 483.91 261.47C483.984 260.575 484.239 259.704 484.66 258.91C485.631 257.253 486.467 255.521 487.16 253.73C487.69 251.89 487.49 249.64 486.01 248.41C485.353 247.974 484.617 247.672 483.843 247.521C483.069 247.37 482.273 247.373 481.5 247.53C480.039 247.786 478.65 248.356 477.43 249.2C473.43 251.69 471.33 256.68 467.06 258.66C465.357 259.284 463.617 259.801 461.85 260.21C460.965 260.423 460.134 260.817 459.409 261.368C458.684 261.919 458.082 262.614 457.64 263.41C456.2 266.69 459.37 270.49 458.42 273.94C457.57 276.94 454.71 278.29 453.21 281.08C452.597 282.318 452.397 283.72 452.64 285.08C452.899 287.371 453.577 289.595 454.64 291.64C455.834 293.741 457.153 295.768 458.59 297.71C458.59 297.71 478.07 309 478.25 309.07Z" fill="#BA68C8"/>
<g opacity="0.3">
<path d="M478.25 309.07C479.41 309.67 482.52 307.01 483.38 306.37C484.861 305.244 486.028 303.756 486.77 302.05C487.606 300.116 487.816 297.969 487.37 295.91C487.132 294.823 486.818 293.753 486.43 292.71C486.08 291.71 485.73 290.65 485.37 289.61C484.953 288.613 484.742 287.541 484.75 286.46C484.92 284.3 486.75 282.7 488.42 281.31C490.27 279.77 492.17 277.78 492.03 275.19C491.787 273.186 490.887 271.318 489.47 269.88C488.16 268.38 486.62 267.06 485.41 265.47C484.466 264.348 483.936 262.936 483.91 261.47C483.984 260.575 484.239 259.704 484.66 258.91C485.631 257.253 486.467 255.521 487.16 253.73C487.69 251.89 487.49 249.64 486.01 248.41C485.353 247.974 484.617 247.672 483.843 247.521C483.069 247.37 482.273 247.373 481.5 247.53C480.039 247.786 478.65 248.356 477.43 249.2C473.43 251.69 471.33 256.68 467.06 258.66C465.357 259.284 463.617 259.801 461.85 260.21C460.965 260.423 460.134 260.817 459.409 261.368C458.684 261.919 458.082 262.614 457.64 263.41C456.2 266.69 459.37 270.49 458.42 273.94C457.57 276.94 454.71 278.29 453.21 281.08C452.597 282.318 452.397 283.72 452.64 285.08C452.899 287.371 453.577 289.595 454.64 291.64C455.834 293.741 457.153 295.768 458.59 297.71C458.59 297.71 478.07 309 478.25 309.07Z" fill="white"/>
</g>
<path d="M466.94 303.18C467.076 303.167 467.202 303.101 467.29 302.997C467.378 302.892 467.421 302.756 467.41 302.62C465.54 282.34 473.98 259.42 480.62 252.55C480.714 252.452 480.766 252.32 480.763 252.184C480.76 252.048 480.703 251.919 480.605 251.825C480.507 251.731 480.375 251.68 480.239 251.682C480.103 251.685 479.974 251.742 479.88 251.84C473.11 258.84 464.49 282.15 466.39 302.71C466.395 302.777 466.413 302.842 466.444 302.902C466.474 302.962 466.516 303.016 466.567 303.059C466.618 303.103 466.678 303.136 466.742 303.157C466.806 303.178 466.873 303.185 466.94 303.18Z" fill="white"/>
<path d="M469 278.18H469.15C473.882 276.6 478.77 275.534 483.73 275C483.797 274.995 483.862 274.977 483.921 274.946C483.981 274.916 484.033 274.873 484.076 274.822C484.119 274.771 484.151 274.712 484.171 274.648C484.191 274.584 484.197 274.517 484.19 274.45C484.188 274.381 484.171 274.313 484.141 274.251C484.111 274.189 484.068 274.134 484.015 274.09C483.963 274.045 483.901 274.013 483.834 273.994C483.768 273.975 483.698 273.97 483.63 273.98C478.57 274.499 473.581 275.566 468.75 277.16C468.639 277.206 468.548 277.29 468.491 277.396C468.435 277.502 468.417 277.624 468.44 277.742C468.464 277.86 468.528 277.966 468.621 278.042C468.713 278.118 468.83 278.16 468.95 278.16L469 278.18Z" fill="white"/>
<path d="M250 493.45C383.852 493.45 492.36 430.801 492.36 353.52C492.36 276.239 383.852 213.59 250 213.59C116.148 213.59 7.64014 276.239 7.64014 353.52C7.64014 430.801 116.148 493.45 250 493.45Z" fill="#F5F5F5"/>
<path d="M194.2 377.75L263.33 337.84L177.93 288.54L108.8 328.45L194.2 377.75Z" fill="#E0E0E0"/>
<path d="M293.26 464.72L357.59 427.58L293.26 390.44L228.94 427.58L293.26 464.72Z" fill="#E0E0E0"/>
<path d="M391.41 411.03C422.404 411.03 447.53 396.524 447.53 378.63C447.53 360.736 422.404 346.23 391.41 346.23C360.416 346.23 335.29 360.736 335.29 378.63C335.29 396.524 360.416 411.03 391.41 411.03Z" fill="#E0E0E0"/>
<path d="M99.5398 416.78C138.619 416.78 170.3 398.491 170.3 375.93C170.3 353.369 138.619 335.08 99.5398 335.08C60.4601 335.08 28.7798 353.369 28.7798 375.93C28.7798 398.491 60.4601 416.78 99.5398 416.78Z" fill="#E0E0E0"/>
<path d="M20.7398 93.26C20.6205 93.2608 20.5031 93.2297 20.3998 93.17C20.2929 93.1106 20.204 93.0236 20.1424 92.918C20.0808 92.8124 20.0489 92.6922 20.0498 92.57V69.72C20.0489 69.5977 20.0808 69.4775 20.1424 69.3719C20.204 69.2663 20.2929 69.1793 20.3998 69.12L40.0598 57.77C40.1636 57.7063 40.283 57.6726 40.4048 57.6726C40.5266 57.6726 40.646 57.7063 40.7498 57.77C40.8541 57.8314 40.9405 57.9191 41.0002 58.0244C41.0598 58.1297 41.0908 58.2489 41.0898 58.37V81.23C41.0901 81.3507 41.0577 81.4693 40.9961 81.5731C40.9345 81.677 40.8459 81.7623 40.7398 81.82L21.0898 93.17C20.9825 93.2288 20.8622 93.2598 20.7398 93.26ZM21.4298 70.11V91.38L39.7098 80.83V59.56L21.4298 70.11Z" fill="#E0E0E0"/>
<path d="M20.7398 132.11C20.6189 132.112 20.5002 132.077 20.3998 132.01C20.2937 131.952 20.2052 131.867 20.1436 131.763C20.082 131.659 20.0496 131.541 20.0498 131.42V108.56C20.0489 108.438 20.0808 108.317 20.1424 108.212C20.204 108.106 20.2929 108.019 20.3998 107.96L40.0598 96.61C40.1654 96.5513 40.2841 96.5205 40.4048 96.5205C40.5256 96.5205 40.6443 96.5513 40.7498 96.61C40.8541 96.6714 40.9405 96.7591 41.0002 96.8644C41.0598 96.9698 41.0908 97.0889 41.0898 97.21V120.07C41.0898 120.192 41.0573 120.312 40.9958 120.417C40.9343 120.523 40.846 120.61 40.7398 120.67L21.0898 132C20.9864 132.07 20.8647 132.108 20.7398 132.11ZM21.4298 109V130.26L39.7098 119.71V98.4L21.4298 109Z" fill="#E0E0E0"/>
<path d="M30.3298 121.42L25.7598 117.02L27.2798 113.78L29.8898 116.28L41.1598 92.44L43.1298 94.33L30.3298 121.42Z" fill="#BA68C8"/>
<path d="M20.7398 171C20.6205 171.001 20.5031 170.97 20.3998 170.91C20.2943 170.849 20.2065 170.762 20.1451 170.656C20.0837 170.551 20.0509 170.432 20.0498 170.31V147.4C20.0499 147.278 20.0823 147.158 20.1438 147.053C20.2053 146.947 20.2936 146.86 20.3998 146.8L40.0598 135.45C40.1638 135.398 40.2793 135.373 40.3956 135.377C40.5119 135.381 40.6252 135.415 40.725 135.475C40.8248 135.535 40.9078 135.619 40.9664 135.719C41.0249 135.82 41.0571 135.934 41.0598 136.05V158.91C41.0608 159.032 41.0288 159.152 40.9672 159.258C40.9056 159.364 40.8167 159.451 40.7098 159.51L21.0898 170.86C20.9874 170.937 20.8667 170.985 20.7398 171ZM21.4298 147.85V169.11L39.7098 158.56V137.25L21.4298 147.85Z" fill="#E0E0E0"/>
<path d="M478.91 93.17L459.26 81.82C459.154 81.7623 459.065 81.677 459.003 81.5731C458.942 81.4693 458.909 81.3507 458.91 81.23V58.37C458.909 58.2489 458.94 58.1297 458.999 58.0244C459.059 57.9191 459.145 57.8314 459.25 57.77C459.354 57.7063 459.473 57.6726 459.595 57.6726C459.716 57.6726 459.836 57.7063 459.94 57.77L479.6 69.12C479.707 69.1793 479.795 69.2663 479.857 69.3719C479.919 69.4775 479.951 69.5977 479.95 69.72V92.57C479.951 92.6922 479.919 92.8124 479.857 92.918C479.795 93.0236 479.707 93.1106 479.6 93.17C479.496 93.2297 479.379 93.2608 479.26 93.26C479.137 93.2598 479.017 93.2288 478.91 93.17ZM460.29 59.56V80.83L478.57 91.38V70.11L460.29 59.56Z" fill="#E0E0E0"/>
<path d="M478.91 132L459.26 120.66C459.154 120.6 459.065 120.513 459.004 120.407C458.942 120.302 458.91 120.182 458.91 120.06V97.21C458.909 97.0889 458.94 96.9698 458.999 96.8644C459.059 96.7591 459.145 96.6714 459.25 96.61C459.355 96.5513 459.474 96.5205 459.595 96.5205C459.715 96.5205 459.834 96.5513 459.94 96.61L479.6 108C479.707 108.059 479.795 108.146 479.857 108.252C479.919 108.357 479.951 108.478 479.95 108.6V131.46C479.95 131.581 479.918 131.699 479.856 131.803C479.794 131.907 479.706 131.992 479.6 132.05C479.499 132.117 479.381 132.152 479.26 132.15C479.131 132.137 479.008 132.084 478.91 132ZM460.29 98.4V119.67L478.57 130.22V109L460.29 98.4Z" fill="#E0E0E0"/>
<path d="M478.91 170.86L459.26 159.51C459.153 159.451 459.064 159.364 459.002 159.258C458.941 159.152 458.909 159.032 458.91 158.91V136.05C458.912 135.934 458.945 135.82 459.003 135.719C459.062 135.619 459.145 135.535 459.244 135.475C459.344 135.415 459.458 135.381 459.574 135.377C459.69 135.373 459.806 135.398 459.91 135.45L479.6 146.8C479.706 146.86 479.794 146.947 479.856 147.053C479.917 147.158 479.95 147.278 479.95 147.4V170.26C479.949 170.382 479.916 170.501 479.854 170.606C479.793 170.712 479.705 170.799 479.6 170.86C479.496 170.92 479.379 170.951 479.26 170.95C479.137 170.95 479.017 170.919 478.91 170.86ZM460.29 137.25V158.51L478.57 169.06V147.8L460.29 137.25Z" fill="#E0E0E0"/>
<path d="M468.5 158.87L463.93 149.19L466.04 147.17L469.09 153.67L479.77 143.37L481.3 146.56L468.5 158.87Z" fill="#BA68C8"/>
<path d="M198.15 68L178.49 56.67C178.386 56.6102 178.3 56.5242 178.241 56.4206C178.181 56.317 178.15 56.1995 178.15 56.08V33.22C178.151 33.0982 178.184 32.9787 178.245 32.8735C178.307 32.7683 178.394 32.6809 178.5 32.62C178.605 32.5613 178.724 32.5305 178.845 32.5305C178.966 32.5305 179.084 32.5613 179.19 32.62L198.84 44C198.944 44.0614 199.031 44.1491 199.09 44.2544C199.15 44.3598 199.181 44.4789 199.18 44.6V67.42C199.181 67.541 199.15 67.6602 199.09 67.7655C199.031 67.8708 198.944 67.9586 198.84 68.02C198.733 68.0819 198.613 68.1163 198.49 68.12C198.368 68.1104 198.251 68.069 198.15 68ZM179.53 34.41V55.68L197.8 66.23V45L179.53 34.41Z" fill="#E0E0E0"/>
<path d="M188.35 57.33L183.78 47.65L185.89 45.63L188.94 52.13L199.62 41.83L201.15 45.02L188.35 57.33Z" fill="#BA68C8"/>
<path d="M228.63 85.61L209 74.26C208.894 74.2023 208.805 74.117 208.744 74.0132C208.682 73.9093 208.65 73.7908 208.65 73.67V50.81C208.649 50.689 208.68 50.5698 208.74 50.4645C208.799 50.3592 208.886 50.2714 208.99 50.21C209.095 50.1513 209.214 50.1205 209.335 50.1205C209.456 50.1205 209.574 50.1513 209.68 50.21L229.34 61.56C229.447 61.6193 229.536 61.7064 229.597 61.8119C229.659 61.9175 229.691 62.0378 229.69 62.16V85C229.685 85.1824 229.611 85.3561 229.483 85.4861C229.355 85.616 229.182 85.6925 229 85.7C228.871 85.7028 228.743 85.6718 228.63 85.61ZM210 52V73.27L228.28 83.82V62.55L210 52Z" fill="#E0E0E0"/>
<path d="M259.08 103.2L239.43 91.86C239.324 91.7998 239.235 91.7126 239.174 91.6072C239.112 91.5018 239.08 91.382 239.08 91.26V68.4C239.079 68.2789 239.11 68.1598 239.17 68.0544C239.229 67.9491 239.316 67.8614 239.42 67.8C239.525 67.7413 239.644 67.7105 239.765 67.7105C239.886 67.7105 240.004 67.7413 240.11 67.8L259.77 79.15C259.877 79.2093 259.966 79.2963 260.027 79.4019C260.089 79.5075 260.121 79.6277 260.12 79.75V102.61C260.12 102.731 260.088 102.849 260.026 102.953C259.964 103.057 259.876 103.142 259.77 103.2C259.669 103.266 259.551 103.301 259.43 103.3C259.306 103.301 259.184 103.266 259.08 103.2ZM240.46 69.59V90.86L258.74 101.41V80.15L240.46 69.59Z" fill="#E0E0E0"/>
<path d="M181.23 161.39L126 324.95L122.05 327.23L177.29 163.67L181.23 161.39Z" fill="#455A64"/>
<path d="M122.05 327.23L120.1 326.11L175.33 162.54L177.29 163.67L122.05 327.23Z" fill="#263238"/>
<path d="M177.29 295.34L175.33 294.22L120.1 194.44L122.05 195.56L177.29 295.34Z" fill="#263238"/>
<path d="M126 193.28L181.23 293.06L177.29 295.34L122.05 195.56L126 193.28Z" fill="#455A64"/>
<path d="M195.06 233.16V237.72L254.24 203.55V199L195.06 233.16Z" fill="#455A64"/>
<path d="M195.06 233.16V237.72L120.1 194.44V189.88L195.06 233.16Z" fill="#37474F"/>
<path d="M254.24 203.55L199.01 367.12L195.06 369.39L250.3 205.83L254.24 203.55Z" fill="#455A64"/>
<path d="M195.06 369.39L193.11 368.27L248.34 204.7L250.3 205.83L195.06 369.39Z" fill="#263238"/>
<path d="M250.3 337.5L248.34 336.38L193.11 236.6L195.06 237.72L250.3 337.5Z" fill="#263238"/>
<path d="M199.01 235.44L254.24 335.22L250.3 337.5L195.06 237.72L199.01 235.44Z" fill="#455A64"/>
<path d="M179.28 73.71L163.48 82.83C150.287 90.4484 139.332 101.406 131.717 114.602C124.102 127.797 120.095 142.765 120.1 158V189.91L124.04 192.19L183.22 158V76L179.28 73.71Z" fill="#BA68C8"/>
<path opacity="0.6" d="M179.28 73.71L163.48 82.83C150.287 90.4484 139.332 101.406 131.717 114.602C124.102 127.797 120.095 142.765 120.1 158V189.91L124.04 192.19L183.22 158V76L179.28 73.71Z" fill="white"/>
<path opacity="0.6" d="M126.51 125.25L183.22 158V76L179.28 73.72L163.48 82.84C146.787 92.4758 133.779 107.398 126.51 125.25Z" fill="white"/>
<path d="M124 192.16V160.25C124 145.019 128.01 130.056 135.627 116.866C143.244 103.676 154.198 92.7238 167.39 85.11L183.22 76V158L124 192.16Z" fill="#BA68C8"/>
<path opacity="0.7" d="M124 192.16V160.25C124 145.019 128.01 130.056 135.627 116.866C143.244 103.676 154.198 92.7238 167.39 85.11L183.22 76V158L124 192.16Z" fill="white"/>
<path d="M191.12 226.33L124.04 187.6L183.22 153.44L250.3 192.16L191.12 226.33Z" fill="#BA68C8"/>
<path opacity="0.8" d="M191.12 226.33L124.04 187.6L183.22 153.44L250.3 192.16L191.12 226.33Z" fill="white"/>
<path d="M191.12 230.89V226.33L124.04 187.6V192.16L191.12 230.89Z" fill="#BA68C8"/>
<path opacity="0.6" d="M191.12 230.89V226.33L124.04 187.6V192.16L191.12 230.89Z" fill="white"/>
<path opacity="0.3" d="M146.3 189.47L173.92 205.42L209.43 184.92L181.81 168.97L146.3 189.47Z" fill="#BA68C8"/>
<path d="M146.3 187.85L173.92 203.79L209.43 183.29L181.81 167.35L146.3 187.85Z" fill="#FAFAFA"/>
<path d="M193.64 188.09C193.601 188.099 193.56 188.099 193.52 188.09L189.58 185.81C189.543 185.789 189.511 185.759 189.49 185.722C189.468 185.685 189.456 185.643 189.456 185.6C189.456 185.557 189.468 185.515 189.49 185.478C189.511 185.441 189.543 185.411 189.58 185.39L193.52 183.11C193.557 183.09 193.598 183.079 193.64 183.079C193.682 183.079 193.723 183.09 193.76 183.11L197.76 185.39C197.798 185.411 197.829 185.441 197.851 185.478C197.872 185.515 197.884 185.557 197.884 185.6C197.884 185.643 197.872 185.685 197.851 185.722C197.829 185.759 197.798 185.789 197.76 185.81L193.76 188.09C193.721 188.1 193.679 188.1 193.64 188.09ZM190.18 185.57L193.64 187.57L197.1 185.57L193.64 183.57L190.18 185.57Z" fill="#BA68C8"/>
<path d="M185.75 192.65H185.63L181.69 190.37C181.653 190.349 181.621 190.318 181.599 190.281C181.576 190.245 181.563 190.203 181.56 190.16C181.56 190.116 181.571 190.073 181.595 190.036C181.618 189.999 181.651 189.969 181.69 189.95L185.63 187.67C185.665 187.646 185.707 187.632 185.75 187.632C185.793 187.632 185.835 187.646 185.87 187.67L189.82 189.95C189.857 189.971 189.887 190.002 189.908 190.039C189.93 190.076 189.94 190.118 189.94 190.16C189.938 190.202 189.926 190.243 189.905 190.279C189.884 190.316 189.855 190.347 189.82 190.37L185.87 192.65C185.831 192.66 185.789 192.66 185.75 192.65ZM182.29 190.13L185.75 192.13L189.21 190.13L185.75 188.13L182.29 190.13Z" fill="#BA68C8"/>
<path d="M177.86 197.2C177.821 197.209 177.78 197.209 177.74 197.2L173.74 194.92C173.703 194.899 173.673 194.868 173.652 194.831C173.631 194.794 173.62 194.753 173.62 194.71C173.622 194.668 173.634 194.627 173.655 194.591C173.676 194.554 173.705 194.523 173.74 194.5L177.74 192.22C177.777 192.2 177.818 192.189 177.86 192.189C177.902 192.189 177.943 192.2 177.98 192.22L181.98 194.5C182.015 194.523 182.044 194.554 182.065 194.591C182.086 194.627 182.098 194.668 182.1 194.71C182.101 194.753 182.09 194.794 182.069 194.831C182.047 194.868 182.017 194.899 181.98 194.92L177.98 197.2C177.941 197.21 177.899 197.21 177.86 197.2ZM174.4 194.68L177.86 196.68L181.32 194.68L177.86 192.68L174.4 194.68Z" fill="#BA68C8"/>
<path d="M187.69 182.68C187.607 182.679 187.524 182.659 187.45 182.62L175.61 175.79C175.499 175.723 175.419 175.616 175.385 175.491C175.351 175.366 175.368 175.233 175.43 175.12C175.497 175.009 175.605 174.929 175.73 174.897C175.856 174.865 175.989 174.884 176.1 174.95L187.93 181.78C188.024 181.832 188.098 181.914 188.14 182.012C188.181 182.111 188.189 182.22 188.162 182.324C188.134 182.427 188.073 182.519 187.987 182.583C187.902 182.648 187.797 182.682 187.69 182.68Z" fill="#E0E0E0"/>
<path d="M179.83 187.2C179.746 187.195 179.664 187.171 179.59 187.13L167.76 180.3C167.659 180.231 167.588 180.126 167.56 180.007C167.533 179.887 167.551 179.762 167.611 179.655C167.671 179.549 167.769 179.469 167.886 179.431C168.002 179.393 168.129 179.399 168.24 179.45L180.08 186.29C180.135 186.322 180.183 186.365 180.221 186.415C180.259 186.466 180.287 186.523 180.303 186.585C180.318 186.646 180.322 186.71 180.313 186.773C180.304 186.835 180.283 186.896 180.25 186.95C180.21 187.026 180.149 187.09 180.075 187.134C180.001 187.178 179.916 187.201 179.83 187.2Z" fill="#E0E0E0"/>
<path d="M172 191.7C171.913 191.7 171.827 191.68 171.75 191.64L159.92 184.81C159.809 184.743 159.729 184.636 159.695 184.511C159.662 184.386 159.678 184.253 159.74 184.14C159.772 184.085 159.815 184.038 159.865 183.999C159.916 183.961 159.973 183.933 160.035 183.918C160.096 183.902 160.16 183.898 160.223 183.907C160.285 183.916 160.346 183.938 160.4 183.97L172.24 190.8C172.35 190.865 172.431 190.97 172.464 191.093C172.498 191.217 172.482 191.348 172.42 191.46C172.378 191.534 172.316 191.595 172.243 191.637C172.169 191.679 172.085 191.701 172 191.7Z" fill="#E0E0E0"/>
<path d="M183.22 75.99L250.3 114.71L246.35 116.99L179.28 78.26L183.22 75.99Z" fill="#BA68C8"/>
<path opacity="0.8" d="M183.22 75.99L250.3 114.71L246.35 116.99L179.28 78.26L183.22 75.99Z" fill="white"/>
<path d="M179.28 78.26V155.72L246.35 194.44V116.99L179.28 78.26Z" fill="#BA68C8"/>
<path opacity="0.6" d="M179.28 78.26V155.72L246.35 194.44V116.99L179.28 78.26Z" fill="white"/>
<path d="M250.3 114.71L234.5 123.83C221.308 131.45 210.354 142.408 202.739 155.603C195.125 168.798 191.117 183.765 191.12 199V230.91L195.06 233.18L254.24 199V117L250.3 114.71Z" fill="#BA68C8"/>
<path opacity="0.6" d="M250.3 114.71L234.5 123.83C221.308 131.45 210.354 142.408 202.739 155.603C195.125 168.798 191.117 183.765 191.12 199V230.91L195.06 233.18L254.24 199V117L250.3 114.71Z" fill="white"/>
<path opacity="0.6" d="M197.53 166.25L254.24 199V117L250.3 114.72L234.5 123.84C217.808 133.478 204.801 148.4 197.53 166.25Z" fill="white"/>
<path d="M195.06 233.16V201.25C195.06 186.019 199.071 171.056 206.687 157.866C214.304 144.676 225.258 133.724 238.45 126.11L254.24 117V199L195.06 233.16Z" fill="#BA68C8"/>
<path opacity="0.8" d="M195.06 233.16V201.25C195.06 186.019 199.071 171.056 206.687 157.866C214.304 144.676 225.258 133.724 238.45 126.11L254.24 117V199L195.06 233.16Z" fill="white"/>
<path d="M220.92 166.8L219.13 171.4V174L218.86 174.16V171.53L217.06 169.01L217.4 168.82L218.7 170.69L219 171.16L219.28 170.36L220.59 166.98L220.92 166.8Z" fill="#455A64"/>
<path d="M223.24 171.73C221.91 172.49 221.24 171.73 221.24 169.73C221.168 168.89 221.315 168.045 221.665 167.277C222.015 166.51 222.558 165.846 223.24 165.35C224.57 164.59 225.24 165.46 225.24 167.35C225.322 168.192 225.18 169.04 224.829 169.809C224.478 170.578 223.93 171.241 223.24 171.73ZM223.24 165.73C222.639 166.174 222.161 166.764 221.853 167.445C221.545 168.127 221.416 168.875 221.48 169.62C221.48 171.14 221.98 172.14 223.24 171.4C223.838 170.972 224.315 170.395 224.623 169.727C224.932 169.06 225.062 168.323 225 167.59C225 166.08 224.52 165 223.24 165.72V165.73Z" fill="#455A64"/>
<path d="M229.72 161.73V165.09C229.72 167.01 229.14 168.32 227.9 169.04C226.66 169.76 226.07 169.12 226.07 167.2V163.83L226.33 163.68V167.08C226.33 168.61 226.77 169.36 227.9 168.71C228.449 168.333 228.885 167.814 229.16 167.208C229.435 166.601 229.539 165.931 229.46 165.27V161.88L229.72 161.73Z" fill="#455A64"/>
<path d="M234.34 165.24L234.04 165.42L233.48 164.12C233.23 163.52 232.85 163.39 232.19 163.77L230.96 164.48V167.15L230.7 167.3V161.12L232.59 160.03C233.39 159.57 234 159.77 234 160.95C234.002 161.374 233.914 161.794 233.742 162.182C233.569 162.57 233.317 162.917 233 163.2C233.36 163.2 233.59 163.45 233.74 163.79L234.34 165.24ZM232.61 160.38L230.95 161.38V164.11V164.17L232.55 163.25C232.914 163.033 233.216 162.726 233.426 162.358C233.636 161.99 233.748 161.574 233.75 161.15C233.75 160.13 233.25 160 232.61 160.38Z" fill="#455A64"/>
<path d="M209.09 197.54L205.36 185.78L208.21 184.14L209.82 189.81C210.46 192.04 210.72 192.97 210.73 193.02H210.78C210.78 192.95 211.04 191.73 211.67 188.83L213.3 181.23L216.01 179.66L212.28 195.73L209.09 197.54Z" fill="#BA68C8"/>
<path d="M221.64 176.1C224.84 174.26 227.15 175.91 227.15 180.16C227.15 184.41 224.84 188.73 221.64 190.57C218.44 192.41 216.14 190.77 216.14 186.57C216.14 182.37 218.45 178 221.64 176.1ZM221.64 187.41C222.587 186.775 223.358 185.911 223.882 184.899C224.406 183.887 224.667 182.759 224.64 181.62C224.64 179.11 223.38 178.25 221.64 179.24C220.691 179.879 219.918 180.748 219.394 181.765C218.869 182.783 218.61 183.916 218.64 185.06C218.66 187.54 219.91 188.41 221.64 187.41Z" fill="#BA68C8"/>
<path d="M233.36 172.72V183.53L230.86 184.98V174.16L227.66 176.01V172.91L236.55 167.77V170.88L233.36 172.72Z" fill="#BA68C8"/>
<path d="M237.85 167L245.45 162.61V165.71L240.35 168.65V171.04L244.11 168.87V171.65L240.35 173.82V176.36L245.53 173.36V176.47L237.85 180.9V167Z" fill="#BA68C8"/>
<path d="M215.93 204.15L215.68 204.29V198.89L215.36 200.13L213.83 205.44L212.29 201.88L211.97 201.03V206.45L211.71 206.59V200.41L211.95 200.28L213.6 204.09L213.84 204.7L214.07 203.82L215.73 198.1L215.96 197.96L215.93 204.15Z" fill="#455A64"/>
<path d="M220.74 201.37L220.45 201.54L219.92 200.21L217.32 201.71L216.8 203.64L216.51 203.81L218.51 196.48L218.74 196.34L220.74 201.37ZM219.83 199.91L218.83 197.3L218.71 196.83L218.57 197.44L217.57 201.24V201.3L219.83 199.91Z" fill="#455A64"/>
<path d="M224 193.63L222.32 194.63V200.44L222.06 200.59V194.77L220.38 195.77V195.45L224 193.3V193.63Z" fill="#455A64"/>
<path d="M227.82 191.43L226.14 192.43V198.24L225.88 198.39V192.53L224.21 193.53V193.2L227.79 191.13L227.82 191.43Z" fill="#455A64"/>
<path d="M231.57 195.12L228.45 196.92V190.74L231.57 188.94V189.27L228.68 190.93V193.45V193.5L231.29 191.99V192.32L228.68 193.83V196.36V196.41L231.57 194.74V195.12Z" fill="#455A64"/>
<path d="M236.1 192.5L235.8 192.68L235.24 191.38C234.99 190.78 234.61 190.65 233.95 191.03L232.72 191.74V194.41L232.46 194.56V188.38L234.35 187.29C235.15 186.83 235.76 187.03 235.76 188.21C235.762 188.634 235.674 189.054 235.502 189.442C235.329 189.83 235.077 190.177 234.76 190.46C235.12 190.46 235.36 190.71 235.5 191.05L236.1 192.5ZM234.37 187.65L232.71 188.6V191.33V191.39L234.31 190.47C234.674 190.253 234.976 189.946 235.186 189.578C235.396 189.21 235.508 188.794 235.51 188.37C235.51 187.39 235 187.28 234.37 187.65Z" fill="#455A64"/>
<path d="M238.19 191.37C237.939 191.56 237.639 191.674 237.326 191.698C237.012 191.723 236.698 191.658 236.42 191.51L236.63 191.11C236.866 191.253 237.139 191.323 237.414 191.312C237.69 191.302 237.956 191.21 238.18 191.05C238.585 190.852 238.931 190.553 239.185 190.182C239.439 189.81 239.593 189.379 239.63 188.93C239.63 188.37 239.31 188.08 238.63 188.22L237.78 188.39C236.94 188.54 236.49 188.39 236.49 187.59C236.531 187.059 236.707 186.547 237.003 186.103C237.299 185.66 237.705 185.301 238.18 185.06C238.399 184.891 238.664 184.791 238.94 184.773C239.216 184.756 239.491 184.821 239.73 184.96L239.53 185.35C239.334 185.213 239.1 185.139 238.86 185.139C238.621 185.139 238.387 185.213 238.19 185.35C237.803 185.536 237.468 185.817 237.218 186.166C236.968 186.516 236.811 186.923 236.76 187.35C236.76 188.01 237.22 188.04 237.95 187.9L238.73 187.75C239.61 187.59 239.93 187.99 239.93 188.68C239.913 189.244 239.741 189.793 239.435 190.267C239.128 190.741 238.698 191.123 238.19 191.37Z" fill="#455A64"/>
<path d="M240.05 155.54L240.8 157.13L242.48 156.49L241.26 158.76L241.55 160.82L240.05 160.64L238.55 162.55L238.84 160.16L237.63 159.29L239.3 158L240.05 155.54Z" fill="#BA68C8"/>
<path d="M211.2 172.2L210.45 174.66L208.77 175.95L209.98 176.82L209.7 179.21L211.2 177.3L212.69 177.48L212.41 175.42L213.62 173.15L211.95 173.79L211.2 172.2Z" fill="#BA68C8"/>
<path d="M335.42 341.29L297.03 458.15L293.25 460.34L331.64 343.47L335.42 341.29Z" fill="#455A64"/>
<path d="M293.25 460.34L291.38 459.26L329.76 342.4L331.64 343.47L293.25 460.34Z" fill="#263238"/>
<path d="M346.22 429.75L344.35 428.68L306.52 356.6L308.4 357.68L346.22 429.75Z" fill="#263238"/>
<path d="M312.18 355.49L350.01 427.57L346.23 429.75L308.4 357.67L312.18 355.49Z" fill="#455A64"/>
<path d="M282.46 310.71L244.07 427.57L240.29 429.75L278.68 312.89L282.46 310.71Z" fill="#455A64"/>
<path d="M240.29 429.75L238.42 428.68L276.81 311.81L278.68 312.89L240.29 429.75Z" fill="#263238"/>
<path d="M293.26 399.17L291.39 398.09L253.56 326.01L255.44 327.09L293.26 399.17Z" fill="#263238"/>
<path d="M259.22 324.9L297.05 396.98L293.26 399.17L255.44 327.09L259.22 324.9Z" fill="#455A64"/>
<path d="M289.48 370.78L228.94 335.83L293.26 298.69L353.81 333.64L289.48 370.78Z" fill="#455A64"/>
<path d="M289.48 375.15V370.78L353.81 333.64V338.01L289.48 375.15Z" fill="#37474F"/>
<path d="M289.48 375.15V370.78L228.94 335.83L228.96 340.18L289.48 375.15Z" fill="#263238"/>
<path d="M289.51 366.41V313.99L237.95 284.32V336.74L289.51 366.41Z" fill="#BA68C8"/>
<path d="M289.51 313.99L344.81 282.04V334.47L289.51 366.41V313.99Z" fill="#BA68C8"/>
<path opacity="0.15" d="M289.51 313.99L344.81 282.04V334.47L289.51 366.41V313.99Z" fill="white"/>
<path d="M289.51 313.99L236.5 283.48L293.25 250.69L346.25 281.2L289.51 313.99Z" fill="#BA68C8"/>
<path opacity="0.3" d="M289.51 313.99L236.5 283.48L293.25 250.69L346.25 281.2L289.51 313.99Z" fill="white"/>
<path d="M289.51 313.99V323.35L236.5 292.85V283.48L289.51 313.99Z" fill="#BA68C8"/>
<path d="M346.25 281.2L289.51 313.99V323.35L346.25 290.57V281.2Z" fill="#BA68C8"/>
<path opacity="0.15" d="M346.25 281.2L289.51 313.99V323.35L346.25 290.57V281.2Z" fill="white"/>
<path opacity="0.1" d="M238 293.68V295.74L289.56 325.41V323.35L238 293.68ZM344.86 291.4L289.56 323.4V325.46L344.86 293.46V291.4Z" fill="black"/>
<path d="M274.34 287.77L281.91 292.14L308.4 276.84L300.83 272.48L274.34 287.77Z" fill="#BA68C8"/>
<path opacity="0.2" d="M306.51 277.94L308.4 276.84L300.83 272.48L300.84 274.68L306.51 277.94Z" fill="black"/>
<path opacity="0.1" d="M276.24 288.86L300.83 274.66V272.48L274.34 287.77L276.24 288.86Z" fill="black"/>
<path d="M301.3 344.33L297.73 333.05L300.46 331.48L302 336.91C302.62 339.05 302.86 339.91 302.87 339.99H302.92C302.92 339.92 303.17 338.75 303.77 335.99L305.33 328.7L307.93 327.2L304.36 342.61L301.3 344.33Z" fill="#FAFAFA"/>
<path d="M313.34 323.77C316.4 322.01 318.61 323.59 318.61 327.67C318.61 331.75 316.4 335.88 313.34 337.67C310.28 339.46 308.06 337.85 308.06 333.78C308.06 329.71 310.28 325.54 313.34 323.77ZM313.34 334.62C314.245 334.008 314.981 333.177 315.481 332.206C315.981 331.234 316.228 330.152 316.2 329.06C316.2 326.66 315 325.83 313.34 326.78C312.433 327.395 311.695 328.228 311.195 329.204C310.695 330.179 310.449 331.264 310.48 332.36C310.48 334.74 311.68 335.58 313.34 334.62Z" fill="#FAFAFA"/>
<path d="M324.58 320.52V330.89L322.17 332.28V321.91L319.12 323.68V320.68L327.63 315.76V318.76L324.58 320.52Z" fill="#FAFAFA"/>
<path d="M328.88 315.07L336.17 310.86V313.86L331.28 316.68V318.97L334.88 316.89V319.56L331.28 321.64V324.08L336.28 321.21V324.21L328.92 328.46L328.88 315.07Z" fill="#FAFAFA"/>
<path d="M307.53 273.72L305.15 278.68L281.91 292.14L277.06 289.34L290.08 261.85L307.53 273.72Z" fill="#FAFAFA"/>
<path d="M427 353.41C427.46 355.67 428.31 358.28 429 362.89C429.69 367.5 428.62 367.69 431.94 379.25C433.94 386.18 433.57 388.94 428.94 394.79C423.94 401.06 418.75 399.79 415.35 392.85C412.45 386.92 412.62 384.16 412.61 378.01C412.6 371.86 412.54 370.07 412.23 365.19C411.96 360.89 412.35 357.95 412.06 354.66L427 353.41Z" fill="#37474F"/>
<path d="M428.54 370.26C427.61 364.26 427.39 358.13 427.05 354.1C426.29 345.1 428.3 327.25 426.89 313.68L401.78 311.39C402.62 316.68 409.56 340.6 412.08 355.04C412.08 355.04 413.08 374.64 414.45 383.27C414.509 383.537 414.627 383.787 414.795 384.002C414.963 384.218 415.177 384.393 415.421 384.516C415.665 384.638 415.933 384.705 416.207 384.711C416.48 384.717 416.751 384.662 417 384.55C420.617 383.101 424.605 382.859 428.37 383.86C428.633 383.959 428.917 383.995 429.197 383.965C429.477 383.934 429.745 383.838 429.981 383.684C430.217 383.53 430.413 383.323 430.554 383.079C430.694 382.835 430.775 382.561 430.79 382.28C430.74 379.09 429.24 374.73 428.54 370.26Z" fill="#B16668"/>
<path d="M356.5 306.54C357.43 325.04 357.62 339.15 357.42 347.12C357.428 351.061 356.685 354.967 355.23 358.63C353.9 362.01 351.59 366.89 349.67 369.04C349.67 369.04 343.48 375.67 344.67 376.29C345.86 376.91 358.62 377.7 363.67 376.29C368.72 374.88 370.67 370.63 372.59 362.88C374.51 355.13 376.23 343.78 376.23 343.78C376.006 343.361 375.841 342.914 375.74 342.45C375.13 340.18 377.55 328.82 378.21 323.17L356.5 306.54Z" fill="#B16668"/>
<path d="M380.77 355.2C380.57 357.12 379.12 359.39 378.63 362.39C378.055 365.808 377.82 369.275 377.93 372.74C378.04 376.98 378.05 377.58 378.05 377.58H376.74C376.74 377.58 376.58 371.46 376.52 368.77C376.46 366.08 375.16 363.72 373.87 363.46C373.87 363.49 374.41 355.36 380.77 355.2Z" fill="#263238"/>
<path d="M376.06 342.73C376.82 344.9 378.78 347.73 379.91 349.83C380.579 351.036 380.991 352.367 381.12 353.74C381.109 354.471 380.948 355.191 380.647 355.857C380.346 356.523 379.911 357.119 379.37 357.61C378.32 358.61 377.56 359.44 376.3 360.61C373.67 363.03 372.57 365.16 370.82 370.77C369.82 374.11 368.11 377.14 365.15 378.77C362.84 380.03 356.5 382.17 348.71 381.84C342.24 381.57 339.71 378.75 342.22 376.32C344.73 373.89 348.92 369.58 349.67 369.07C352.022 369.079 354.35 369.537 356.53 370.42C360.11 372.06 361.21 374.19 365.05 372.42C368.53 370.78 370.37 364.79 370.67 355.26C371 344.81 376.06 342.73 376.06 342.73Z" fill="#37474F"/>
<path d="M409.48 180.84C409.93 183.2 410.43 185.4 411.29 186.57C416.53 193.73 421.88 202.39 422.92 215.79C425.44 248.12 425.55 279.34 425.55 279.34C425.81 282.19 429.23 288.34 428.8 305.57C428.47 318.57 427.52 338.44 427.52 338.44C427.52 338.44 416.1 343.08 407.98 340.07C404.63 327.71 399.27 298.3 395.98 284.14C392.49 269.23 390.09 251.23 390.09 251.23L382.92 279.23C384.024 285.732 384.306 292.347 383.76 298.92C382.84 307.61 377.26 333.65 377.26 333.65C377.26 333.65 363.7 336.56 356.69 331.78C356.69 331.78 354.99 288.51 354.86 278.96C354.73 269.41 353.24 216.78 358.93 191.77C359.19 190.61 359.98 182.7 359.98 182.7C366.83 188.27 400.42 187.05 409.48 180.84Z" fill="#37474F"/>
<path d="M427.74 333.65C424.23 336.92 411.01 337.97 406.74 335.75L408.45 342.75C411.721 344.05 415.264 344.517 418.76 344.11C424.97 343.5 427.53 340.73 427.53 340.73L427.74 333.65Z" fill="#455A64"/>
<path d="M378.22 329.33C374.56 330.59 360.38 329.73 356.34 327.33L356.59 333.13C360.314 334.727 364.253 335.765 368.28 336.21C374.46 336.79 377.1 335.03 377.1 335.03L378.22 329.33Z" fill="#455A64"/>
<path d="M390.06 251.23L385.63 219.28C382.519 219.353 379.434 218.707 376.614 217.392C373.793 216.077 371.315 214.129 369.37 211.7C369.37 211.7 369.21 219.7 382.37 223.21L387.57 252.65L382.86 279.21L390.06 251.23Z" fill="#263238"/>
<path d="M330.15 159.8C326.44 157.01 323.62 154.93 319.33 148.08C318.134 146.459 316.736 144.997 315.17 143.73C313.68 142.313 312.458 140.64 311.56 138.79C311.17 137.86 308.8 138.86 309.26 142.08C309.61 144.47 311.06 146.65 311.64 148.01C310.38 148.01 308.36 147.84 305.64 148.01C302.92 148.18 297.47 147.89 298.47 151.01C298.69 151.71 299.26 152.3 299.28 153.01C299.256 153.348 299.199 153.683 299.11 154.01C298.99 154.663 299.048 155.337 299.278 155.96C299.509 156.583 299.903 157.133 300.42 157.55C300.678 157.705 300.899 157.913 301.07 158.16C301.35 158.7 301.14 159.36 301.26 159.93C301.414 160.582 301.743 161.18 302.21 161.66C302.88 162.38 303.1 162.13 303.77 162.85C304.21 163.32 304.3 164.36 305.33 165.05C306.1 165.56 307.95 165.62 309.92 165.59C311.89 165.56 313.01 166.21 315.63 166.13C317.69 166.07 319.63 167.23 323.06 170.75C330.74 178.07 331.72 180.46 338.61 186.05C339.218 186.553 339.852 187.024 340.51 187.46C347.03 191.95 349.61 188.46 354.76 179.39C361.09 168.24 364.37 161.92 364.37 161.92L374.53 131.63C368.27 132.34 360.91 139.42 355.35 147.45C352.74 151.22 341.93 167.82 341.93 167.82C338.25 165.53 333.87 162.59 330.15 159.8Z" fill="#B16668"/>
<path d="M308.28 149.86C308.555 149.936 308.823 150.037 309.08 150.16C309.346 150.289 309.59 150.462 309.8 150.67H309.72C310.972 150.428 312.27 150.629 313.39 151.24C313.67 151.411 313.92 151.628 314.13 151.88C314.366 152.158 314.488 152.516 314.47 152.88C314.459 153.073 314.397 153.259 314.29 153.42C314.154 153.569 313.976 153.674 313.78 153.72C313.46 153.79 313.17 153.83 312.87 153.89C312.28 154.01 311.7 154.21 311.09 154.35C310.474 154.491 309.84 154.538 309.21 154.49C307.974 154.399 306.755 154.154 305.58 153.76C306.179 153.899 306.787 153.992 307.4 154.04C308.01 154.11 308.61 154.18 309.22 154.19C309.819 154.198 310.416 154.134 311 154C311.59 153.86 312.17 153.65 312.78 153.51C313.09 153.44 313.41 153.39 313.68 153.32C313.95 153.25 314.03 153.15 314.07 152.85C314.12 152.35 313.67 151.85 313.19 151.57C312.145 150.973 310.936 150.724 309.74 150.86H309.69C309.513 150.651 309.299 150.475 309.06 150.34C308.814 150.158 308.553 149.997 308.28 149.86Z" fill="#9A4A4D"/>
<path d="M312.56 153.72C312.822 153.633 313.105 153.634 313.367 153.722C313.629 153.81 313.854 153.982 314.01 154.21C314.162 154.457 314.237 154.744 314.227 155.034C314.216 155.324 314.12 155.605 313.95 155.84C313.428 156.816 312.613 157.603 311.62 158.09C311.09 158.254 310.534 158.321 309.98 158.29C309.447 158.29 308.917 158.27 308.39 158.23C307.33 158.16 306.28 158.09 305.22 157.97C306.28 157.92 307.34 157.91 308.4 157.9C309.431 157.987 310.469 157.92 311.48 157.7C311.94 157.496 312.36 157.211 312.72 156.86C313.09 156.5 313.425 156.104 313.72 155.68C313.876 155.491 313.974 155.261 314.001 155.018C314.027 154.774 313.982 154.528 313.87 154.31C313.746 154.082 313.551 153.902 313.314 153.795C313.078 153.689 312.813 153.662 312.56 153.72Z" fill="#9A4A4D"/>
<path d="M312.1 157.6C312.328 157.498 312.575 157.446 312.825 157.446C313.075 157.446 313.322 157.498 313.55 157.6C313.67 157.662 313.776 157.75 313.858 157.857C313.941 157.964 314 158.088 314.03 158.22C314.075 158.478 314.075 158.742 314.03 159C313.856 159.479 313.564 159.906 313.18 160.24C312.849 160.634 312.432 160.945 311.96 161.15C311.469 161.244 310.968 161.271 310.47 161.23C310.001 161.259 309.534 161.313 309.07 161.39C308.13 161.54 307.18 161.7 306.23 161.83C307.15 161.53 308.07 161.29 309.01 161.08C309.486 160.962 309.971 160.885 310.46 160.85C310.919 160.875 311.379 160.842 311.83 160.75C312.243 160.577 312.612 160.314 312.91 159.98C313.252 159.688 313.528 159.327 313.72 158.92C313.761 158.705 313.761 158.485 313.72 158.27C313.707 158.167 313.67 158.068 313.613 157.982C313.556 157.895 313.48 157.823 313.39 157.77C312.998 157.55 312.536 157.489 312.1 157.6Z" fill="#9A4A4D"/>
<path d="M312.3 160.74C312.399 160.778 312.489 160.835 312.565 160.909C312.641 160.983 312.7 161.072 312.74 161.17C312.818 161.374 312.843 161.594 312.81 161.81C312.722 162.206 312.584 162.589 312.4 162.95C312.299 163.129 312.189 163.303 312.07 163.47C311.946 163.646 311.786 163.792 311.6 163.9C311.266 164.114 310.906 164.285 310.53 164.41L311.41 163.64C311.545 163.528 311.663 163.396 311.76 163.25C311.86 163.092 311.95 162.929 312.03 162.76C312.211 162.44 312.365 162.106 312.49 161.76C312.566 161.591 312.589 161.403 312.555 161.22C312.521 161.038 312.432 160.87 312.3 160.74Z" fill="#9A4A4D"/>
<path d="M314.27 152.83C314.11 154.581 314.642 156.324 315.753 157.687C316.863 159.05 318.463 159.923 320.21 160.12C318.929 160.16 317.657 159.882 316.51 159.31C315.559 158.867 314.727 158.206 314.08 157.38L313.89 158.18C313.64 157.76 313.52 157.4 312.38 157.51C312.892 157.035 313.342 156.497 313.72 155.91C314.06 155.25 314.55 154.21 313.15 153.59C313.442 153.554 313.728 153.48 314 153.37C314.106 153.331 314.192 153.254 314.242 153.154C314.293 153.053 314.302 152.937 314.27 152.83Z" fill="#9A4A4D"/>
<path d="M375.38 130.76C366.52 132.38 363.38 132.45 354.24 147.25C348.61 156.34 341.77 167.43 341.77 167.43L335.21 163.43C336.43 164.66 338.82 170.99 337.21 174.89C336.176 177.281 334.34 179.236 332.02 180.42C334.266 182.763 336.668 184.951 339.21 186.97C342.77 189.68 344.66 190.09 346.82 189.45C348.98 188.81 351.09 186.45 356.33 180.24C361.72 173.85 368.03 164.44 368.03 164.44L375.38 130.76Z" fill="#BA68C8"/>
<path opacity="0.55" d="M375.38 130.76C366.52 132.38 363.38 132.45 354.24 147.25C348.61 156.34 341.77 167.43 341.77 167.43L335.21 163.43C336.43 164.66 338.82 170.99 337.21 174.89C336.176 177.281 334.34 179.236 332.02 180.42C334.266 182.763 336.668 184.951 339.21 186.97C342.77 189.68 344.66 190.09 346.82 189.45C348.98 188.81 351.09 186.45 356.33 180.24C361.72 173.85 368.03 164.44 368.03 164.44L375.38 130.76Z" fill="white"/>
<path opacity="0.35" d="M341.77 167.43C345.26 169.56 348.61 174.08 349.2 176.75C349.189 174.505 348.607 172.3 347.511 170.341C346.414 168.382 344.838 166.733 342.93 165.55L341.77 167.43Z" fill="#BA68C8"/>
<path opacity="0.35" d="M335.28 183.48C335.866 183.171 336.419 182.802 336.93 182.38C337.976 181.55 338.858 180.533 339.53 179.38C340.792 177.132 341.277 174.531 340.91 171.98C340.91 171.85 341.03 171.85 341.06 171.98C341.725 174.699 341.302 177.569 339.88 179.98C339.155 181.184 338.217 182.244 337.11 183.11C336.66 183.457 336.185 183.771 335.69 184.05L335.2 183.61L335.28 183.48Z" fill="#BA68C8"/>
<path d="M394.81 127.15L408.97 131.55C411.4 132.38 420.59 137.99 417.38 151.81C416.32 156.39 414.87 162.81 413.56 169.22C412.56 174.12 416.23 183.55 419.19 198.57C419.19 198.57 407.05 208.23 382.92 205.51C364.51 203.43 357.59 195.51 357.59 195.51C357.41 181.18 360.45 172.11 361.81 166.65C361.81 166.65 359.75 164.08 359.63 158.25C359.52 152.14 363.19 146.79 368.63 139.87C371.557 136.082 374.913 132.646 378.63 129.63L394.81 127.15Z" fill="#FAFAFA"/>
<path d="M363.25 109.89C362.64 107.89 360.34 107.67 359.85 104.89C359.36 102.11 360.85 100.31 363.07 99.09C365.29 97.87 365.76 95.66 365.31 91.09C364.86 86.52 368.12 83.77 371.89 83.21C373.75 82.94 375.89 83.13 377.22 81.77C377.73 81.1192 378.151 80.4028 378.47 79.64C380.27 76.32 383.61 74.87 388.08 74.9C390.087 74.8752 392.079 75.2491 393.94 76C396.08 76.8161 398.011 78.1008 399.59 79.76C402.04 79.37 406.65 79.9 409.15 82.1C410.24 82.8741 411.163 83.8588 411.865 84.9959C412.568 86.1329 413.035 87.3993 413.24 88.72C413.66 91.43 413.41 92.97 414.58 94.44C416.96 97.44 419.93 97.44 421.28 99.96C423.2 103.56 418.47 106.65 420.88 110.96C421.381 111.804 421.686 112.75 421.771 113.728C421.857 114.706 421.721 115.69 421.374 116.608C421.028 117.526 420.479 118.355 419.768 119.032C419.058 119.709 418.204 120.218 417.27 120.52C415.17 121.32 413.37 120.24 410.37 121.36C407.37 122.48 407.25 124.77 403.43 126.36C400.31 127.61 397.64 125.36 395.11 125.03C391.65 124.63 392.76 125.77 389.35 123.58C388.18 122.83 387.48 121.49 386.3 120.75C382.56 118.51 381.3 119.75 376.8 121.35C375.62 121.78 371.7 122.87 369.03 119.91C367.434 117.97 366.608 115.51 366.71 113C365.95 115.5 360.21 115.45 359.63 111.48C359.886 111.883 360.279 112.182 360.736 112.321C361.193 112.46 361.685 112.431 362.123 112.239C362.56 112.046 362.914 111.704 363.121 111.273C363.328 110.842 363.374 110.352 363.25 109.89Z" fill="#263238"/>
<path d="M400.22 124.1C400.22 121.82 400.68 116.02 400.68 116.02C401.52 118.16 405.4 118.24 407.3 115.6C409.7 112.26 409.69 108.29 408.06 105.87C406.25 103.19 401.95 103.12 400.06 107.27C397.22 107.8 396.15 103.45 398.48 99.46C398.53 89.93 385.58 93.14 382.97 84.58C380.732 84.992 378.617 85.9121 376.79 87.2696C374.963 88.627 373.471 90.3856 372.43 92.41C371.43 94.53 371.26 95.83 371.5 100.12C371.59 101.79 370.44 103.73 370.11 105.94C368.58 116.07 371.56 120.11 374.88 122.08C376.65 123.08 378.95 123.81 383.18 124.08C383.18 124.08 383.1 125.98 383.02 127.24C382.94 128.5 382.8 129.05 381.28 129.24C380.76 129.31 380.18 129.35 380.18 129.35C380.18 129.35 373.18 135.81 382.4 137.5C396.16 140.02 401.66 131.63 402.27 129.5C400.15 129.06 400.12 127.92 400.22 124.1Z" fill="#B16668"/>
<path d="M387.28 113L382.2 114.36C382.268 114.704 382.406 115.031 382.604 115.32C382.803 115.609 383.058 115.855 383.355 116.042C383.651 116.23 383.983 116.354 384.33 116.409C384.676 116.464 385.03 116.447 385.37 116.36C386.067 116.164 386.657 115.701 387.015 115.072C387.373 114.443 387.468 113.699 387.28 113Z" fill="#9A4A4D"/>
<path d="M386.91 114.12C386.243 114.07 385.58 114.253 385.033 114.638C384.485 115.023 384.089 115.585 383.91 116.23C384.385 116.381 384.895 116.381 385.37 116.23C385.853 116.092 386.289 115.823 386.628 115.452C386.967 115.081 387.196 114.624 387.29 114.13C387.16 114.16 387 114.13 386.91 114.12Z" fill="#F28F8F"/>
<path d="M374.05 97.65L377.78 96.1C377.689 95.855 377.549 95.6311 377.368 95.4419C377.188 95.2527 376.971 95.1021 376.731 94.9992C376.49 94.8963 376.232 94.8434 375.97 94.8435C375.709 94.8436 375.45 94.8969 375.21 95C374.717 95.2127 374.323 95.6046 374.108 96.0964C373.893 96.5883 373.872 97.1435 374.05 97.65Z" fill="#263238"/>
<path d="M392.2 98.89L388.58 97C388.698 96.7621 388.862 96.5499 389.062 96.376C389.263 96.2021 389.496 96.0698 389.749 95.987C390.001 95.9041 390.267 95.8724 390.532 95.8935C390.796 95.9146 391.054 95.9882 391.29 96.11C391.763 96.3748 392.119 96.8076 392.287 97.3225C392.456 97.8375 392.425 98.397 392.2 98.89Z" fill="#263238"/>
<path d="M383.16 124.06C389.59 123.72 396.83 121.45 399.16 117.96C399.16 117.96 398.22 121.51 395.61 123.01C391.777 125.108 387.47 126.19 383.1 126.15L383.16 124.06Z" fill="#9A4A4D"/>
<path d="M390.06 103.23C390.062 103.569 389.963 103.9 389.777 104.183C389.59 104.465 389.324 104.686 389.011 104.817C388.699 104.948 388.355 104.983 388.023 104.918C387.69 104.854 387.385 104.691 387.145 104.453C386.904 104.214 386.741 103.909 386.674 103.577C386.607 103.245 386.64 102.901 386.769 102.588C386.898 102.275 387.118 102.007 387.399 101.819C387.68 101.631 388.011 101.53 388.35 101.53C388.802 101.53 389.235 101.709 389.556 102.027C389.876 102.346 390.057 102.778 390.06 103.23Z" fill="#263238"/>
<path d="M377.78 102.44C377.78 102.779 377.68 103.11 377.491 103.391C377.303 103.672 377.035 103.892 376.722 104.021C376.409 104.15 376.065 104.183 375.733 104.116C375.401 104.05 375.096 103.886 374.857 103.646C374.619 103.405 374.457 103.1 374.392 102.767C374.327 102.435 374.362 102.091 374.493 101.779C374.624 101.466 374.845 101.2 375.127 101.013C375.41 100.827 375.741 100.728 376.08 100.73C376.304 100.73 376.526 100.774 376.733 100.86C376.94 100.946 377.128 101.073 377.286 101.231C377.444 101.39 377.569 101.579 377.654 101.786C377.738 101.994 377.781 102.216 377.78 102.44Z" fill="#263238"/>
<path d="M375.79 109.12L381.29 111.45L382.74 100.48L375.79 109.12Z" fill="#9A4A4D"/>
<path d="M405.08 114.59C405.066 114.774 405.016 114.953 404.933 115.118C404.85 115.282 404.736 115.429 404.596 115.549C404.456 115.669 404.294 115.761 404.119 115.819C403.944 115.876 403.759 115.899 403.575 115.885C403.391 115.871 403.212 115.821 403.047 115.738C402.883 115.655 402.736 115.54 402.616 115.401C402.496 115.261 402.404 115.099 402.346 114.924C402.289 114.749 402.266 114.564 402.28 114.38C402.308 114.009 402.482 113.664 402.764 113.421C403.047 113.178 403.414 113.057 403.785 113.085C404.156 113.113 404.501 113.287 404.744 113.569C404.987 113.852 405.108 114.219 405.08 114.59Z" fill="#EBEBEB"/>
<path d="M382.89 128.1C382.23 128.34 377.81 129.74 375.38 130.76C369.592 135.436 364.751 141.175 361.12 147.67C358.58 152.5 357.26 156.67 357.12 164.55C357.01 171.4 356.18 191.75 354.82 203.07C355.56 205.72 362.96 208.87 362.96 208.87C363.34 198.69 363.52 166.79 365.72 155.97C368.33 143.13 379.83 131.4 382.51 129.56L382.89 128.1Z" fill="#BA68C8"/>
<path d="M400.23 127.31V129.41C393.87 145.95 395.12 153.53 395.93 164.41C397.86 190.41 400.93 212.87 400.93 212.87C400.93 212.87 419.09 213.06 425.56 204.31C425.56 204.31 419.74 191.17 417.56 177.9C416.27 170.03 419.94 153.9 418.56 142.51C418 137.75 416.2 133 412.63 131.88C409.68 130.95 407.12 130.2 407.12 130.2L400.23 127.31Z" fill="#BA68C8"/>
<path d="M422.81 218.33C425.69 219.15 429.36 215.57 430.37 214.33C431.38 213.09 430.08 210.13 429.47 207.64C428.86 205.15 429.47 200.94 426.39 202.12C423.31 203.3 416.82 211.62 422.81 218.33Z" fill="#9A4A4D"/>
<path d="M413.21 132.51C422.53 134.45 423.44 134.17 427.84 143.02C432.97 153.32 440.23 170.14 442.06 174.02C443.89 177.9 445.66 180.81 440.73 186.86C436.34 192.25 423.37 207.77 421.44 209.99C419.74 211.99 421.65 217.75 427.5 216.91C427.5 216.91 423.05 220.85 420.6 220.41C418.49 220.04 413.16 216.79 410.11 210.41C408.19 206.41 409.8 203.2 412.72 198.7C416.21 193.33 424.85 178.96 424.85 178.96L412 153.29C412 153.29 406.4 139.61 413.21 132.51Z" fill="#B16668"/>
<path d="M412.65 131.88C410.39 134.13 406.8 142.57 411.8 154.77L424.39 179L418.78 188C418.78 188 422.78 193.21 426.15 195.59C427.066 196.281 428.117 196.772 429.235 197.032C430.353 197.292 431.513 197.315 432.64 197.1C432.64 197.1 439.85 189.1 442.4 185.59C444.95 182.08 445.4 181.07 442.15 173.19C439.01 165.59 429.03 142.45 426.89 138.91C424.75 135.37 422 133 412.65 131.88Z" fill="#BA68C8"/>
<path opacity="0.55" d="M412.65 131.88C410.39 134.13 406.8 142.57 411.8 154.77L424.39 179L418.78 188C418.78 188 422.78 193.21 426.15 195.59C427.066 196.281 428.117 196.772 429.235 197.032C430.353 197.292 431.513 197.315 432.64 197.1C432.64 197.1 439.85 189.1 442.4 185.59C444.95 182.08 445.4 181.07 442.15 173.19C439.01 165.59 429.03 142.45 426.89 138.91C424.75 135.37 422 133 412.65 131.88Z" fill="white"/>
<path opacity="0.35" d="M427 188.83C426.057 188.106 425.171 187.311 424.35 186.45C423.543 185.617 422.804 184.721 422.14 183.77C422.03 183.61 421.9 183.38 421.8 183.21L421.37 183.89C421.449 184 421.523 184.113 421.59 184.23C422.259 185.174 422.994 186.07 423.79 186.91C424.602 187.766 425.481 188.556 426.42 189.27C427.398 190.085 428.485 190.758 429.65 191.27C429.97 191.39 429.99 190.95 429.79 190.8C428.83 190.1 427.86 189.52 427 188.83Z" fill="#BA68C8"/>
<path d="M161.25 384.15C162.03 384.08 162.05 385.98 161.56 386.89C160.18 389.51 156.32 392.33 150.67 393.58C145.02 394.83 133.97 393.34 130.67 393.21C127.37 393.08 121.54 394.79 118.2 395.32C112.12 396.32 107.96 394.62 105.97 392.67C105.643 392.274 105.4 391.815 105.257 391.321C105.115 390.827 105.075 390.31 105.14 389.8C105.2 387.49 105.4 387.02 105.66 387.04L161.25 384.15Z" fill="#37474F"/>
<path d="M106.27 380.3C105.686 383.036 105.504 385.842 105.73 388.63C106.44 390.35 108.32 391.33 109.82 391.8C113.82 393.05 117.7 392.8 122.07 391.88C124.885 391.158 127.785 390.821 130.69 390.88C134.15 391.07 141.78 391.88 145.25 391.88C148.488 391.929 151.702 391.309 154.69 390.06C156.98 388.99 160.45 386.64 161.23 384.86C161.98 380.71 161.55 378.23 159.16 376.86C156.77 375.49 153 375.07 148 374.69C146.51 374.58 144.62 374.49 143.82 374.4C140.82 374.07 137.97 373.85 135.68 373.7C133.728 373.717 131.798 373.297 130.03 372.47C129.215 372.106 128.556 371.464 128.17 370.66C127.69 369.6 127.7 368.05 126.77 367.96C126.77 367.96 109.67 370.87 108.29 371.01C106.71 371.17 107.75 373.46 106.27 380.3Z" fill="#455A64"/>
<path d="M145.17 374.25C145.687 374.656 146.116 375.163 146.43 375.74C146.775 376.37 147.037 377.042 147.21 377.74C147.44 378.61 146.36 378.74 145.94 377.74C145.627 376.905 145.218 376.11 144.72 375.37C144.363 374.853 143.835 374.478 143.23 374.31L142.37 374.22C142.6 373.6 144.5 373.81 145.17 374.25Z" fill="#FAFAFA"/>
<path d="M137.45 373.35C137.738 373.31 138.031 373.333 138.309 373.417C138.587 373.502 138.843 373.646 139.06 373.84C139.621 374.317 140.04 374.94 140.27 375.64C140.568 376.48 140.799 377.343 140.96 378.22C141.02 378.78 139.7 378.76 139.56 378.15C139.42 377.54 139.12 376.43 138.88 375.8C138.73 375.41 138.05 373.94 137.14 373.8H136.73C136.73 373.6 136.98 373.47 137.16 373.43C137.253 373.394 137.351 373.367 137.45 373.35Z" fill="#FAFAFA"/>
<path d="M132.92 373.21C133.309 373.284 133.662 373.489 133.92 373.79C134.228 374.202 134.468 374.661 134.63 375.15C134.903 376.044 135.037 376.975 135.03 377.91C135.03 378.63 133.73 378.44 133.69 377.91C133.55 376.39 133.55 375.39 132.82 374.28C132.547 373.796 132.158 373.388 131.69 373.09C131.69 372.96 131.92 372.94 132.05 372.97C132.344 373.034 132.634 373.114 132.92 373.21Z" fill="#FAFAFA"/>
<path d="M106.37 352.59C106.37 352.59 107.85 368.32 108.22 371.95C108.34 373.11 110.54 373.58 111.67 374.07C113.081 374.597 114.396 375.354 115.56 376.31C118.43 379.16 120.56 379.83 122.33 374.83C122.387 374.588 122.496 374.362 122.648 374.165C122.8 373.969 122.992 373.807 123.212 373.691C123.431 373.575 123.673 373.506 123.921 373.491C124.169 373.475 124.417 373.512 124.65 373.6C125.614 373.93 126.632 374.072 127.65 374.02C127.8 373.92 127.71 373.69 127.65 373.54C127.204 372.985 126.884 372.34 126.711 371.65C126.539 370.959 126.518 370.239 126.65 369.54C127.14 363.1 127.41 356.65 127.78 350.2L106.37 352.59Z" fill="#FFBDA7"/>
<path d="M51.2896 341.05C53.2896 337.8 53.9595 331.76 55.4195 320.54L73.9096 330.07L65.9995 349.49C65.6732 350.333 65.4222 351.203 65.2495 352.09C62.9995 355.28 51.2896 341.05 51.2896 341.05Z" fill="#FFBDA7"/>
<path d="M45.1498 348C45.1498 347.81 45.0698 346.27 45.1498 346.09C45.5798 344.44 46.5998 343.98 47.9098 343.09C49.2235 342.204 50.4284 341.167 51.4998 340C51.9398 339.39 52.0198 339.08 52.6998 338.8C53.8598 338.33 55.6998 338.29 58.0198 339.5C61.7898 341.5 62.9398 343.86 62.7198 346.44C62.5598 348.44 62.3898 351.02 64.1298 352.19C64.8498 352.68 65.9898 349.53 65.9898 349.53C67.0598 351.33 65.5598 353.81 64.7698 357.44C64.3176 359.448 64.2835 361.528 64.6698 363.55C65.0498 366.74 65.4898 366.72 67.1798 366.95C68.6398 367.14 72.7798 366.86 75.2898 368.62C78.7598 371.04 77.8298 374.26 77.8298 374.26C77.3798 375.49 73.6098 381.43 59.8298 379.21C55.8298 378.57 47.4298 372.29 47.5598 371.7C47.6297 371.099 47.6297 370.491 47.5598 369.89C47.5598 368.49 47.4498 367.08 47.3898 365.67C47.4339 364.332 47.3535 362.993 47.1498 361.67C46.8989 360.577 46.7284 359.468 46.6398 358.35C46.3798 355.52 46.1098 352.69 45.8498 349.86C45.7498 349 44.9998 348.79 45.1498 348Z" fill="#455A64"/>
<path d="M43.4098 347.43C42.0498 348.74 42.8798 352.56 44.6998 357.14C45.5098 359.14 47.0098 362.66 46.5698 366.38C46.1298 370.1 46.0498 371.85 47.0098 373.6C48.5098 376.32 56.5198 379.81 61.2398 380.9C58.384 376.902 56.7197 372.176 56.4398 367.27C55.9598 359.06 55.3398 353.77 51.5898 350.14C46.8398 345.53 43.4098 347.43 43.4098 347.43Z" fill="black"/>
<path d="M77.8297 374.22C77.8297 374.22 75.0697 379.4 64.4097 379.22C60.2097 379.15 57.9697 377.11 57.8597 370.73C57.7397 363.04 57.1197 355.28 54.6397 351.47C52.1597 347.66 48.1897 345.8 45.1197 346.07C44.4006 346.29 43.7904 346.772 43.4097 347.42C43.4097 347.42 46.4797 346.42 51.2697 350.42C54.7997 353.35 55.7497 359.47 55.6997 367.07C55.6997 370.34 55.4797 374.07 56.4397 376.53C56.8806 377.62 57.5706 378.593 58.4544 379.369C59.3382 380.145 60.3914 380.704 61.5297 381C67.3197 382.62 75.2497 379.94 77.2597 377.49C77.5965 377.024 77.8229 376.487 77.9217 375.921C78.0204 375.354 77.989 374.773 77.8297 374.22Z" fill="#37474F"/>
<path d="M64.9996 365.51C65.4313 365.815 65.7371 366.266 65.8596 366.78C65.9046 367.436 65.7723 368.092 65.4768 368.68C65.1812 369.268 64.7332 369.765 64.1796 370.12C63.5396 370.52 62.9796 370.38 63.9996 369.03C64.6556 367.973 65.002 366.754 64.9996 365.51Z" fill="#FAFAFA"/>
<path d="M64.45 361.53C64.45 361.53 64.79 361.75 64.88 362.82C64.88 363.39 64.03 365.7 62.88 366.25C61.73 366.8 62.37 365.5 62.88 364.87C63.6503 363.89 64.1872 362.748 64.45 361.53Z" fill="#FAFAFA"/>
<path d="M64.8297 357.14C64.8297 357.14 65.1997 357.24 64.8297 358.71C64.2982 359.618 63.478 360.322 62.4997 360.71C61.7797 360.79 61.4297 360.43 62.3197 359.79C62.9997 359.32 64.6997 357.85 64.8297 357.14Z" fill="#FAFAFA"/>
<path d="M71.7296 337.5C71.7296 337.5 75.1196 329.55 87.1896 302.56C90.8396 294.39 91.7896 288.33 92.7096 284.32C93.7096 280.15 97.7896 259.6 97.7896 259.6L103.05 293.78C102.029 298.216 101.403 302.734 101.18 307.28C101.18 312.92 101.89 321.49 103.49 333.12C105.93 350.89 106.59 360.12 106.59 360.12C107.84 361.02 111.81 362.77 118.59 362.39C121.689 362.072 124.712 361.23 127.53 359.9C127.53 359.9 129.07 341.41 129.71 328.52C130.3 316.62 131.28 303.17 131.78 295.99C132.78 282.51 133.04 276.7 133.18 255.45C133.32 233.45 131.64 201.01 131.64 201.01L69.1296 199.57C69.1296 199.57 65.0196 208.75 66.2796 227.73C65.7896 246.26 63.0396 281.53 63.0396 281.53C59.5995 289.873 57.3735 298.665 56.4296 307.64C55.5096 316.4 54.1196 327.94 54.1196 327.94C60.7796 327.7 68.0596 332 71.7296 337.5Z" fill="#BA68C8"/>
<path opacity="0.2" d="M97.8395 259.78L94.3895 235.29C94.3895 235.29 86.2796 234.66 76.5396 226.55C76.5396 226.55 77.8195 233.81 91.6395 238.77L95.2495 264.26L92.6295 285C92.6295 285 97.7795 260.25 97.8395 259.78Z" fill="black"/>
<path d="M146.6 176.91L148.77 177.28L150.06 179.09C149.869 179.497 149.771 179.941 149.771 180.39C149.771 180.839 149.869 181.283 150.06 181.69C150.73 183.02 151.7 182.6 151.7 182.6L152.7 180.19L153.1 176.84L150.37 174.43L147.69 173.9L146.6 176.91Z" fill="#B16668"/>
<path d="M154.48 175.81C154.765 176.755 154.799 177.758 154.58 178.72C154.341 179.59 154.034 180.439 153.66 181.26C153.38 181.85 152.28 181.85 151.6 180.37C151.04 179.15 151.83 176.43 151.83 176.43L154.48 175.81Z" fill="#F0997A"/>
<path d="M158.57 172.45C158.87 173.99 159.79 176.88 159.96 178C160.13 179.12 158.74 179 158.74 179L155.46 174.28L158.57 172.45Z" fill="#F0997A"/>
<path d="M146.27 161C147.74 160.4 147.71 160.38 149.73 161.45C152.472 162.983 155.09 164.728 157.56 166.67C158.92 167.89 158.56 170.26 158.56 172.3C158.56 174.34 158.93 176.54 158.56 177.11C158.51 177.192 158.444 177.262 158.366 177.318C158.288 177.373 158.2 177.412 158.106 177.433C158.013 177.454 157.916 177.455 157.822 177.437C157.728 177.42 157.639 177.383 157.56 177.33L146.27 161Z" fill="#FFBDA7"/>
<path d="M159.08 179.45L160.84 185.59C160.849 185.63 160.846 185.671 160.832 185.709C160.817 185.747 160.791 185.78 160.757 185.802C160.724 185.825 160.684 185.837 160.643 185.837C160.602 185.836 160.563 185.824 160.53 185.8L155.38 182L159.08 179.45Z" fill="#FFA8A7"/>
<path d="M160.56 185.81L155.38 182L157.38 180.66L157.83 181.31L160.7 185.62L160.56 185.81Z" fill="#F28F8F"/>
<path d="M160.53 185.8C160.563 185.824 160.602 185.836 160.643 185.837C160.684 185.837 160.724 185.825 160.757 185.802C160.791 185.78 160.817 185.747 160.832 185.709C160.846 185.671 160.849 185.63 160.84 185.59L160.49 184.39C160.397 184.574 160.254 184.728 160.077 184.832C159.899 184.937 159.695 184.988 159.49 184.98H159.38L160.53 185.8Z" fill="#263238"/>
<path d="M137.58 156.34L137.92 156.82L138.32 157.41L155.38 182C156.083 182.141 156.813 182.016 157.43 181.65C157.856 181.444 158.229 181.14 158.515 180.763C158.802 180.386 158.995 179.946 159.08 179.48L142 154.9L141.22 153.78C141.71 154.54 138.05 157.09 137.58 156.34Z" fill="#455A64"/>
<path d="M137.58 156.34L137.92 156.82L138.32 157.41L155.38 182C155.808 182.082 156.249 182.071 156.672 181.965C157.095 181.86 157.49 181.664 157.83 181.39L140.07 155.5C140.14 155.45 140.14 155.41 140.07 155.39C139.11 156.14 137.84 156.76 137.58 156.34Z" fill="#37474F"/>
<path d="M138.85 158.19L139.61 159.27C139.82 159.59 140.61 159.33 141.45 158.86C142.54 158.25 143.55 157.13 143.27 156.7L142.72 155.9L142.52 155.62C142.79 156.05 141.78 157.17 140.69 157.78C139.9 158.23 139.12 158.49 138.88 158.22L138.85 158.19Z" fill="#EBEBEB"/>
<path d="M139 158.46C139.49 159.21 143.15 156.63 142.67 155.89L142 154.8C142.48 155.55 138.82 158.12 138.33 157.37L139 158.46Z" fill="#37474F"/>
<path d="M137.58 156.34L138.32 157.41C138.79 158.15 142.32 155.7 142.03 154.9L141.27 153.82C141.71 154.54 138.05 157.09 137.58 156.34Z" fill="#EBEBEB"/>
<path d="M136 154.12L137.57 156.34C137.77 156.66 138.57 156.4 139.39 155.94C140.48 155.33 141.51 154.21 141.24 153.78L139.66 151.55C139.03 150.64 137.04 151.7 136.2 152.84C136.042 153.009 135.938 153.221 135.902 153.449C135.867 153.677 135.9 153.911 136 154.12Z" fill="#F28F8F"/>
<path opacity="0.1" d="M137.52 154.28C138.026 154.116 138.488 153.836 138.868 153.463C139.248 153.09 139.536 152.633 139.71 152.13C139.744 152.008 139.748 151.88 139.722 151.757C139.696 151.633 139.64 151.517 139.56 151.42C138.83 150.76 137 151.76 136.21 152.84C136.055 153.006 135.953 153.215 135.916 153.439C135.878 153.663 135.908 153.893 136 154.1C136.24 154.44 136.81 154.53 137.52 154.28Z" fill="black"/>
<path d="M146.659 169.43C148.189 171 149.899 171.43 152.849 172.24C154.244 172.79 155.564 173.512 156.779 174.39C157.949 175.18 158.499 176.64 156.259 177.68C154.759 178.38 152.859 177.51 151.259 177.2C150.459 177.048 149.644 176.981 148.829 177C146.509 177.14 146.109 177.88 143.489 178.47C140.869 179.06 138.779 178.41 137.319 178.66C135.859 178.91 101.779 189.12 101.779 189.12L101.419 170.12C101.419 170.12 129.909 167.98 134.499 167.19C138.219 166.54 142.619 163.5 142.619 163.5L146.659 169.43Z" fill="#FFBDA7"/>
<path d="M137.37 166.33C136.431 166.731 135.452 167.029 134.45 167.22C129.86 168.01 101.37 170.15 101.37 170.15L101.73 189.15C101.73 189.15 135.81 178.95 137.27 178.69C137.602 178.656 137.937 178.656 138.27 178.69L137.37 166.33Z" fill="#F0997A"/>
<path d="M154.31 167.21C154.079 167.529 153.743 167.758 153.361 167.854C152.979 167.951 152.575 167.911 152.22 167.74C151.62 167.42 149.63 165.85 149.63 165.85L154.63 173.02C154.467 172.39 154.491 171.726 154.7 171.11C154.848 170.89 155.038 170.701 155.259 170.555C155.481 170.409 155.729 170.309 155.99 170.26C155.429 170.173 154.857 170.294 154.38 170.6C154.018 170.405 153.709 170.126 153.478 169.787C153.246 169.447 153.099 169.058 153.05 168.65C154.33 167.76 154.31 167.21 154.31 167.21Z" fill="#F0997A"/>
<path d="M68.6896 121.55C64.5496 129.46 64.8596 138.42 66.0596 149.55C67.1596 159.77 67.9296 166.11 68.8696 178.76C69.9996 193.17 67.9996 202.29 67.9996 202.29C67.9996 202.29 76.3896 213.94 94.4096 218.53C126.07 226.59 132.75 216.16 132.75 216.16C132.75 216.16 132.47 205.16 132.51 196.61C132.51 188.9 132.37 179.77 132.11 172.18C131.5 154.75 131.3 140.27 129.28 134.06C127.79 130.62 126.23 129.26 122.42 127.53C119.28 126.1 113.29 123.2 108.82 121.47C100.602 118.498 92.2377 115.948 83.7596 113.83C80.7642 113.468 77.7289 114.009 75.0435 115.384C72.3582 116.76 70.1454 118.907 68.6896 121.55Z" fill="#37474F"/>
<path d="M111.119 113.83L108.839 121.47C103.459 121.64 91.2495 119.47 88.7095 117.02L91.0595 108L111.119 113.83Z" fill="#FFBDA7"/>
<path d="M129.06 92.09C129.06 92.09 131.13 94.34 131.79 100.96L127.79 102.96C127.4 98.29 127 93.56 129.06 92.09Z" fill="#F0997A"/>
<path d="M123.129 72.82C129.689 74.49 132.129 81.09 128.389 94.74C128.849 109.61 123.529 114.48 121.389 116.01C116.809 117.47 112.509 117.01 107.039 114.5C102.869 112.5 92.3694 107.21 89.0394 99.5C85.0394 90.39 85.9094 77.8 92.5794 74.29C101.879 69.3 119.659 71.94 123.129 72.82Z" fill="#FFBDA7"/>
<path d="M122.63 106.3C122.706 106.335 122.775 106.386 122.83 106.45C122.83 106.45 122.83 106.56 122.91 106.61C122.971 106.727 123.037 106.84 123.11 106.95C123.269 107.186 123.457 107.401 123.67 107.59C124.067 107.927 124.512 108.203 124.99 108.41C125.007 108.418 125.022 108.43 125.033 108.446C125.044 108.462 125.05 108.481 125.05 108.5C125.062 108.521 125.069 108.545 125.069 108.57C125.069 108.595 125.062 108.619 125.05 108.64C124.95 108.72 124.77 108.64 124.65 108.64C124.512 108.603 124.378 108.553 124.25 108.49C123.972 108.358 123.71 108.193 123.47 108C123.236 107.815 123.028 107.599 122.85 107.36C122.761 107.243 122.68 107.119 122.61 106.99L122.51 106.81C122.469 106.697 122.469 106.573 122.51 106.46C122.51 106.46 122.55 106.26 122.63 106.3Z" fill="#F0997A"/>
<path d="M121.34 116C120.13 116.85 113.87 117.63 110.34 116.56L111.16 113.82C114.438 115.008 117.863 115.742 121.34 116Z" fill="#F0997A"/>
<path d="M121.729 82.67C121.579 83.7971 121.074 84.8473 120.289 85.67C119.184 86.8091 117.709 87.518 116.129 87.67C116.739 89.6093 116.88 91.6657 116.539 93.67C116.476 94.3072 116.222 94.9103 115.809 95.4C115.672 95.5818 115.485 95.7212 115.272 95.8026C115.059 95.8839 114.827 95.9038 114.604 95.8601C114.38 95.8163 114.172 95.7107 114.006 95.5551C113.839 95.3995 113.719 95.2003 113.659 94.98C113.373 93.8286 112.953 92.7145 112.409 91.66C111.684 90.4009 110.52 89.4538 109.139 89C103.909 87.5 102.359 95.79 103.979 99C106.629 104.24 110.039 101.82 110.039 101.82C110.039 101.82 110.529 109.24 104.829 111.37C104.829 111.37 95.9494 112.69 90.8294 108.79C86.8294 102.57 83.1094 95.58 82.3394 89.97C80.6594 77.76 84.3394 70.83 89.7294 69.83C91.2194 65.52 95.8594 63.52 100.129 62.83C105.929 61.83 110.899 64.57 116.479 65.55C119.339 66.0552 122.276 65.9047 125.069 65.11C126.309 64.76 127.819 64.34 128.729 65.22C129.076 65.5872 129.303 66.051 129.379 66.55C129.562 67.4309 129.535 68.3424 129.3 69.2109C129.066 70.0794 128.631 70.8807 128.029 71.55C129.679 70.78 132.179 71.71 133.449 73.13C135.259 75.13 135.229 77.2 133.979 79.81C133.199 81.36 128.749 86.14 121.729 82.67Z" fill="#263238"/>
<path d="M89.8195 71L85.2695 67.18C85.7878 66.5797 86.5227 66.2091 87.3135 66.1491C88.1043 66.0891 88.8867 66.3447 89.4895 66.86C89.7873 67.1073 90.0325 67.4117 90.2108 67.7553C90.389 68.0989 90.4967 68.4746 90.5274 68.8604C90.5582 69.2463 90.5114 69.6344 90.3898 70.0018C90.2683 70.3693 90.0743 70.7087 89.8195 71Z" fill="#263238"/>
<path d="M180.42 208.22C179.24 207.04 178.06 205.99 177.08 205.06C176.27 204.29 175.22 203.23 173.42 201.25C172.66 200.4 171.82 200.82 170.24 200.3C168.66 199.78 169.13 198.53 168.14 198.06C166.98 197.5 166.58 197.85 165.46 197.33C164.08 196.7 163.37 195.22 161.68 195.85C158.63 196.98 157.68 198.39 153.45 194.5C143.03 184.87 136.61 178.72 136.61 178.72C136.61 178.72 134.61 152.35 133.79 146.27C132.64 138.02 132.9 132.27 122.11 128.75C122.11 128.75 113.46 132.75 114.11 148.4C114.7 161.93 116.28 175.26 117.11 181.78C117.78 187.28 118.76 187.97 125.65 192.73C142.57 204.43 145.18 206.3 147.31 207.67C150.17 209.51 153.12 211.67 156.31 211.88C159.24 212.03 163.44 210.11 165.49 208.99C168.78 207.2 171.49 206.27 172.54 206.53C173.59 206.79 175.54 208.87 177.54 209.41C179.54 209.95 181 208.79 180.42 208.22Z" fill="#FFBDA7"/>
<path d="M122.44 127.53C127.44 129.8 129.44 130.99 132.06 135.26C133.79 138.08 134.06 141.14 134.81 148.62C135.44 155.16 136.31 167.62 136.31 167.62C136.31 167.62 135.19 170.62 127.92 172.99C123.721 174.43 119.154 174.377 114.99 172.84C114.99 172.84 113.56 159.79 113.07 154.39C112.4 147.07 111.85 133 122.44 127.53Z" fill="#BA68C8"/>
<path d="M309.71 64.17L338.93 81.07C339.5 81.41 339.93 82.22 339.93 83.78V119.49C339.93 119.25 339.46 120.06 338.88 120.38L334.73 122.74C334.406 122.903 334.048 122.988 333.685 122.988C333.322 122.988 332.964 122.903 332.64 122.74L303.42 105.84C303.124 105.637 302.88 105.367 302.706 105.053C302.532 104.739 302.435 104.389 302.42 104.03V68.32C302.439 67.9581 302.545 67.6061 302.727 67.293C302.91 66.98 303.164 66.715 303.47 66.52L307.62 64.16C307.946 64.0011 308.304 63.9193 308.666 63.921C309.029 63.9228 309.386 64.008 309.71 64.17Z" fill="#BA68C8"/>
<path opacity="0.2" d="M332.68 122.73C333.005 122.891 333.362 122.974 333.725 122.974C334.087 122.974 334.445 122.891 334.77 122.73L338.92 120.37C339.5 120.05 339.97 119.24 339.97 119.48V83.78C340.064 83.0953 339.949 82.3982 339.64 81.78L333.41 85.36C333.61 85.68 333.72 86.05 333.72 85.49V121.19C333.72 122.74 333.29 123.09 332.68 122.73Z" fill="black"/>
<path opacity="0.3" d="M302.43 68.13C302.52 67.6 302.95 67.42 303.43 67.71L332.64 84.62C332.95 84.809 333.202 85.0786 333.37 85.4L339.6 81.82C339.427 81.5131 339.18 81.2551 338.88 81.07L309.67 64.17C309.346 64.0073 308.988 63.9225 308.625 63.9225C308.262 63.9225 307.904 64.0073 307.58 64.17L303.43 66.53C303.162 66.7136 302.935 66.9504 302.763 67.2257C302.591 67.5011 302.478 67.8089 302.43 68.13Z" fill="white"/>
<path d="M342.83 109.36C343.48 108.97 348.48 106.16 348.64 106.06C348.757 105.981 348.856 105.878 348.93 105.759C349.005 105.639 349.053 105.505 349.072 105.365C349.091 105.225 349.08 105.083 349.04 104.948C349 104.812 348.932 104.687 348.84 104.58L340 94.4L333.72 98L343 107.9C343.09 108.005 343.157 108.127 343.198 108.259C343.238 108.391 343.251 108.53 343.235 108.667C343.219 108.804 343.175 108.937 343.105 109.056C343.035 109.175 342.942 109.279 342.83 109.36Z" fill="#BA68C8"/>
<path opacity="0.3" d="M342.83 109.36C343.48 108.97 348.48 106.16 348.64 106.06C348.757 105.981 348.856 105.878 348.93 105.759C349.005 105.639 349.053 105.505 349.072 105.365C349.091 105.225 349.08 105.083 349.04 104.948C349 104.812 348.932 104.687 348.84 104.58L340 94.4L333.72 98L343 107.9C343.09 108.005 343.157 108.127 343.198 108.259C343.238 108.391 343.251 108.53 343.235 108.667C343.219 108.804 343.175 108.937 343.105 109.056C343.035 109.175 342.942 109.279 342.83 109.36Z" fill="white"/>
<path d="M303.46 67.72L332.68 84.62C332.976 84.8206 333.221 85.088 333.395 85.4007C333.568 85.7134 333.666 86.0626 333.68 86.42V98L343 107.9C343.127 108.028 343.214 108.189 343.252 108.365C343.29 108.541 343.276 108.724 343.213 108.892C343.15 109.061 343.04 109.208 342.896 109.315C342.751 109.423 342.579 109.487 342.4 109.5L333.71 108.86V122.13C333.71 122.79 333.25 123.06 332.71 122.73L303.49 105.83C303.194 105.627 302.95 105.357 302.776 105.043C302.602 104.729 302.504 104.379 302.49 104.02V68.32C302.42 67.65 302.89 67.38 303.46 67.72Z" fill="#BA68C8"/>
<path d="M314.71 105.35H314.41C314.039 105.298 313.686 105.155 313.385 104.933C313.083 104.712 312.84 104.419 312.68 104.08L309.08 96.5C308.827 95.9616 308.798 95.3447 308.999 94.7849C309.201 94.2251 309.616 93.7683 310.155 93.515C310.693 93.2618 311.31 93.2327 311.87 93.4343C312.43 93.6359 312.887 94.0516 313.14 94.59L315.27 99L325.56 87C325.958 86.5439 326.52 86.2644 327.124 86.2231C327.728 86.1819 328.324 86.3822 328.78 86.78C329.236 87.1779 329.515 87.7406 329.557 88.3445C329.598 88.9483 329.398 89.5439 329 90L316.45 104.61C316.231 104.853 315.962 105.045 315.662 105.173C315.361 105.3 315.036 105.361 314.71 105.35Z" fill="#FAFAFA"/>
</svg>
