<svg width="70" height="71" viewBox="0 0 70 71" fill="none" xmlns="http://www.w3.org/2000/svg">
<g clip-path="url(#clip0_264_542)">
<path d="M8.90313 54.4054C6.71563 53.4101 4.92188 50.6265 4.92188 48.2203V29.6265C4.92188 27.2203 6.71563 24.4367 8.90313 23.4414L31.0133 13.3898C33.2062 12.3945 36.7883 12.3945 38.9813 13.3898L61.0914 23.4414C63.2844 24.4367 65.0727 27.2203 65.0727 29.6265V48.2203C65.0727 50.6265 63.2789 53.4101 61.0914 54.4054L38.9813 64.457C36.7883 65.4523 33.2062 65.4523 31.0133 64.457L8.90313 54.4054Z" fill="#006CA2"/>
<path d="M38.9812 37.1132C36.7882 38.1085 33.2062 38.1085 31.0132 37.1132L8.90303 27.0617C6.71006 26.0664 6.71006 24.4367 8.90303 23.4414L31.0132 13.3898C33.2062 12.3945 36.7882 12.3945 38.9812 13.3898L61.0913 23.4414C63.2843 24.4367 63.2843 26.0664 61.0913 27.0617L38.9812 37.1132Z" fill="#40C0E7"/>
<path d="M45.2209 31.0867C44.674 31.3382 43.7771 31.3382 43.2303 31.0867L22.1592 21.5109C21.6123 21.2593 21.6123 20.8546 22.1592 20.6031L24.7787 19.4109C25.3256 19.1593 26.2225 19.1593 26.7693 19.4109L47.8404 28.9921C48.3873 29.2437 48.3873 29.6484 47.8404 29.9L45.2209 31.0867Z" fill="#006CA2"/>
<path d="M43.3891 29.8836C43.3891 29.889 43.3836 29.889 43.3836 29.889L25.1617 21.6094C25.1562 21.6039 25.1563 21.6039 25.1563 21.5984L31.4781 4.73826C31.4781 4.73279 31.4836 4.73279 31.4836 4.73279L49.7055 13.0125C49.7109 13.0125 49.7109 13.0179 49.7109 13.0179L43.3891 29.8836Z" fill="#FBC21A"/>
<path d="M43.3838 29.8891L49.7111 13.018" stroke="#875A3B" stroke-width="1.09375" stroke-miterlimit="10"/>
</g>
<defs>
<clipPath id="clip0_264_542">
<rect width="70" height="70" fill="white" transform="translate(0 0.5)"/>
</clipPath>
</defs>
</svg>
